<svg width="50" height="107" viewBox="0 0 50 107" fill="none" xmlns="http://www.w3.org/2000/svg">
<g clip-path="url(#clip0_113_163)">
<path d="M21.9292 25.5474C20.9838 24.8567 19.6998 24.8565 18.7544 25.5474L20.3423 27.7192C18.8395 25.6628 18.7584 25.5536 18.7534 25.5483L18.7515 25.5493C18.7501 25.5503 18.7484 25.5519 18.7466 25.5532C18.7427 25.5561 18.7369 25.5596 18.731 25.564C18.719 25.5728 18.7032 25.5851 18.6831 25.6001C18.6426 25.6303 18.5851 25.6732 18.5132 25.728C18.3692 25.8377 18.1646 25.9967 17.9077 26.2017C17.3939 26.6116 16.6699 27.2086 15.8062 27.9751C14.0818 29.5052 11.7808 31.7264 9.47412 34.4956C4.91734 39.9663 0.0494107 47.9227 0.0493164 57.1206C0.0494044 62.6709 2.16096 68.0156 5.95264 71.9741C9.74829 75.9366 14.9218 78.1849 20.3413 78.1851C22.8583 78.1851 25.322 77.699 27.6196 76.7827C29.7796 79.8882 33.3714 81.9231 37.4409 81.9233C44.0457 81.9233 49.3998 76.5691 49.3999 69.9644C49.3998 64.4507 45.6685 59.8106 40.5933 58.4273C40.6195 57.9934 40.6343 57.5576 40.6343 57.1206C40.6342 47.9227 35.7672 39.9663 31.2104 34.4956C28.9037 31.7263 26.6018 29.5052 24.8774 27.9751C24.0137 27.2087 23.2896 26.6116 22.7759 26.2017C22.5191 25.9968 22.3143 25.8377 22.1704 25.728C22.0987 25.6734 22.0419 25.6303 22.0015 25.6001C21.9814 25.5851 21.9646 25.5728 21.9526 25.564C21.9469 25.5597 21.9418 25.556 21.938 25.5532C21.9362 25.5519 21.9344 25.5503 21.9331 25.5493L21.9312 25.5483C21.9287 25.5502 21.8794 25.6161 20.5522 27.4321L21.9292 25.5474ZM37.4409 62.3101C41.6683 62.3101 45.0951 65.737 45.0952 69.9644C45.0951 74.1918 41.6683 77.6187 37.4409 77.6187C33.2138 77.6183 29.7867 74.1916 29.7866 69.9644C29.7867 65.7372 33.2138 62.3104 37.4409 62.3101ZM41.6616 65.7446C41.1363 65.2193 40.2846 65.2194 39.7593 65.7446L33.2212 72.2827C32.6963 72.8081 32.696 73.6599 33.2212 74.1851C33.7464 74.71 34.5983 74.7099 35.1235 74.1851L41.6616 67.647C42.1868 67.1217 42.1867 66.27 41.6616 65.7446ZM40.1655 71.0532C39.263 71.0533 38.5308 71.7854 38.5308 72.688C38.5308 73.5906 39.263 74.3227 40.1655 74.3228C41.0682 74.3228 41.8003 73.5907 41.8003 72.688C41.8003 71.7853 41.0682 71.0532 40.1655 71.0532ZM20.3423 31.1655C20.6327 31.4107 20.9564 31.6891 21.3062 31.9995C22.882 33.3979 24.9822 35.4266 27.0757 37.9399C31.3198 43.0352 35.2533 49.7807 35.2534 57.1206C35.2534 57.4862 35.2405 57.8503 35.2163 58.2124C29.6749 59.2552 25.482 64.12 25.4819 69.9644C25.4819 70.5836 25.5308 71.1917 25.6216 71.7856C23.9465 72.4529 22.1589 72.8042 20.3413 72.8042C16.4248 72.804 12.6441 71.1815 9.83838 68.2524C7.02842 65.3188 5.43026 61.3166 5.43018 57.1206C5.43027 49.7808 9.36389 43.0352 13.6079 37.9399C15.7015 35.4265 17.8015 33.3979 19.3774 31.9995C19.7276 31.6888 20.0517 31.4108 20.3423 31.1655ZM10.2837 53.6567C8.79806 53.6569 7.59341 54.8615 7.59326 56.3472C7.5933 60.1166 9.05285 63.7454 11.6714 66.4312C13.1586 67.9565 14.9525 69.1088 16.9106 69.8189C18.3074 70.3251 19.8505 69.6033 20.3569 68.2065C20.8633 66.8098 20.1413 65.2668 18.7446 64.7603C17.5503 64.3272 16.446 63.621 15.5239 62.6753L15.2271 62.356C13.7865 60.7239 12.9742 58.5839 12.9741 56.3472C12.974 54.8615 11.7693 53.6569 10.2837 53.6567ZM34.7173 65.606C33.8147 65.606 33.0825 66.3381 33.0825 67.2407C33.0828 68.1431 33.8148 68.8744 34.7173 68.8745C35.6198 68.8745 36.3518 68.1432 36.3521 67.2407C36.3521 66.338 35.6199 65.606 34.7173 65.606Z" fill="url(#paint0_linear_113_163)"/>
</g>
<defs>
<linearGradient id="paint0_linear_113_163" x1="24.7246" y1="25.0293" x2="24.7246" y2="81.9233" gradientUnits="userSpaceOnUse">
<stop stop-color="#3D383E"/>
<stop offset="1" stop-color="#8260A2"/>
</linearGradient>
<clipPath id="clip0_113_163">
<rect width="49.3515" height="106.106" fill="white" transform="matrix(-1 0 0 1 49.3516 0)"/>
</clipPath>
</defs>
</svg>
