<svg width="181" height="389" viewBox="0 0 181 389" fill="none" xmlns="http://www.w3.org/2000/svg">
<g clip-path="url(#clip0_61_385)">
<path d="M90.2585 62.8765C40.358 62.8765 -0.155273 103.39 -0.155273 153.29C-0.155273 184.91 16.1488 214.06 43.3224 230.364V278.783C43.3224 304.474 64.5671 325.719 90.2585 325.719C115.95 325.719 137.195 304.474 137.195 278.783V230.364C164.368 214.06 180.672 184.91 180.672 152.796C180.672 103.39 140.159 62.8765 90.2585 62.8765ZM90.2585 304.968C75.9306 304.968 64.0731 293.11 64.0731 278.783V265.937C72.4722 268.407 81.3653 269.889 90.2585 269.889C99.1516 269.889 108.045 268.407 116.444 265.937V278.783C116.444 293.604 105.08 304.968 90.2585 304.968ZM122.373 215.048C118.914 216.53 116.444 220.483 116.444 224.435V243.704C108.045 247.162 99.1516 248.645 90.2585 248.645C80.8713 248.645 72.4722 246.668 64.0731 243.704V224.435C64.0731 221.471 62.5909 218.013 60.1206 216.036C59.6265 215.542 59.1324 215.048 58.1443 215.048C34.9233 203.191 20.5954 179.476 20.5954 153.29C20.5954 114.753 51.7215 83.6272 90.2585 83.6272C128.795 83.6272 159.922 114.753 159.922 153.29C159.922 179.476 145.594 203.191 122.373 215.048ZM116.444 148.844C108.539 143.409 99.6457 140.939 90.2585 140.939C80.8713 140.939 71.484 143.903 64.0731 148.844C59.1324 151.808 58.1443 158.725 61.1087 163.172C63.0849 166.136 66.5434 167.618 69.5078 167.618C71.484 167.618 73.4603 167.124 75.4365 165.642C84.3297 159.713 96.1872 159.713 104.586 165.642C109.527 168.606 115.95 167.618 118.914 162.677C122.373 158.725 121.385 152.302 116.444 148.844Z" fill="url(#paint0_linear_61_385)"/>
</g>
<defs>
<linearGradient id="paint0_linear_61_385" x1="90.2585" y1="325.719" x2="90.2585" y2="62.8765" gradientUnits="userSpaceOnUse">
<stop stop-color="#8260A2"/>
<stop offset="1" stop-color="#3D383E"/>
</linearGradient>
<clipPath id="clip0_61_385">
<rect width="180.83" height="388.784" fill="white" transform="matrix(-1 0 0 1 180.83 0)"/>
</clipPath>
</defs>
</svg>
