<svg width="30" height="30" viewBox="0 0 30 30" fill="none" xmlns="http://www.w3.org/2000/svg">
<g clip-path="url(#clip0_116_292)">
<circle cx="15.5" cy="14.5" r="13.5" fill="#555156"/>
<path d="M15 0C12.0333 0 9.13319 0.879734 6.66645 2.52796C4.19972 4.17618 2.27713 6.51885 1.14181 9.25975C0.00649926 12.0006 -0.290551 15.0166 0.288228 17.9264C0.867006 20.8361 2.29562 23.5088 4.3934 25.6066C6.49119 27.7044 9.16394 29.133 12.0737 29.7118C14.9834 30.2906 17.9994 29.9935 20.7403 28.8582C23.4811 27.7229 25.8238 25.8003 27.472 23.3335C29.1203 20.8668 30 17.9667 30 15C30 13.0302 29.612 11.0796 28.8582 9.25975C28.1044 7.43986 26.9995 5.78628 25.6066 4.3934C24.2137 3.00052 22.5601 1.89563 20.7403 1.14181C18.9204 0.387986 16.9698 0 15 0ZM12 19.5C12 19.8978 11.842 20.2794 11.5607 20.5607C11.2794 20.842 10.8978 21 10.5 21C10.1022 21 9.72065 20.842 9.43935 20.5607C9.15804 20.2794 9.00001 19.8978 9.00001 19.5V10.5C9.00001 10.1022 9.15804 9.72064 9.43935 9.43934C9.72065 9.15803 10.1022 9 10.5 9C10.8978 9 11.2794 9.15803 11.5607 9.43934C11.842 9.72064 12 10.1022 12 10.5V19.5ZM21 19.5C21 19.8978 20.842 20.2794 20.5607 20.5607C20.2794 20.842 19.8978 21 19.5 21C19.1022 21 18.7206 20.842 18.4393 20.5607C18.158 20.2794 18 19.8978 18 19.5V10.5C18 10.1022 18.158 9.72064 18.4393 9.43934C18.7206 9.15803 19.1022 9 19.5 9C19.8978 9 20.2794 9.15803 20.5607 9.43934C20.842 9.72064 21 10.1022 21 10.5V19.5Z" fill="#D0C3DC"/>
</g>
<defs>
<clipPath id="clip0_116_292">
<rect width="30" height="30" fill="white"/>
</clipPath>
</defs>
</svg>
