<svg width="30" height="30" viewBox="0 0 30 30" fill="none" xmlns="http://www.w3.org/2000/svg">
<g clip-path="url(#clip0_116_276)">
<circle cx="15.5" cy="14.5" r="13.5" fill="#555156"/>
<path d="M15 0C6.70963 0 0 6.70881 0 15C0 23.2904 6.70869 30 15 30C23.2904 30 30 23.2912 30 15C30 6.70957 23.2912 0 15 0ZM20.4046 16.6651L13.3561 20.7378C12.7615 21.0814 12.0283 21.082 11.4327 20.7383C10.8375 20.3948 10.4709 19.7599 10.4709 19.0727V10.9273C10.4709 10.2401 10.8376 9.60521 11.4327 9.26174C11.7301 9.09006 12.0621 9.00422 12.394 9.00422C12.7262 9.00422 13.0585 9.09023 13.3561 9.26215L20.4046 13.3348C20.9993 13.6784 21.3656 14.3131 21.3656 14.9999C21.3656 15.6868 20.9992 16.3215 20.4046 16.6651Z" fill="#D0C3DC"/>
</g>
<defs>
<clipPath id="clip0_116_276">
<rect width="30" height="30" fill="white"/>
</clipPath>
</defs>
</svg>
