<svg width="30" height="30" viewBox="0 0 30 30" fill="none" xmlns="http://www.w3.org/2000/svg">
<g clip-path="url(#clip0_116_280)">
<circle cx="15.5" cy="14.5" r="13.5" fill="#555156"/>
<path d="M15 -0.000488281C23.2843 -0.000488281 30 6.71622 30 15.0005C29.9997 23.2845 23.2841 30.0005 15 30.0005C6.71589 30.0005 0.000263896 23.2845 0 15.0005C0 6.71622 6.71573 -0.000488281 15 -0.000488281ZM20.5078 17.2407C18.9148 16.2104 16.8381 16.3712 15.4258 17.6157L15.292 17.7397C14.7229 18.2855 14.3506 18.9658 14.1768 19.688H6.25C5.73231 19.688 5.31261 20.1078 5.3125 20.6255C5.31263 21.1431 5.73232 21.563 6.25 21.563H14.1729C14.2853 22.0286 14.4835 22.4809 14.7695 22.895L14.7705 22.896C15.2333 23.564 15.8831 24.0804 16.6377 24.3813V24.3823C17.3935 24.6858 18.2209 24.7642 19.0205 24.6099L19.0215 24.6108C19.8203 24.4576 20.5577 24.0745 21.1426 23.5093L21.1445 23.5063C21.69 22.9755 22.0711 22.3008 22.25 21.563H23.75C24.2677 21.563 24.6874 21.1431 24.6875 20.6255C24.6874 20.1078 24.2677 19.688 23.75 19.688H22.252C22.2005 19.4751 22.1326 19.2653 22.0459 19.062L22.0449 19.0601C21.7251 18.3144 21.1894 17.6814 20.5078 17.2407ZM16.5908 19.0923C17.3759 18.3383 18.5763 18.2229 19.4902 18.814L19.4912 18.8149C19.8588 19.0527 20.1481 19.3942 20.3213 19.7964V19.7974C20.4892 20.1911 20.5331 20.6279 20.4473 21.0474C20.3602 21.4718 20.1474 21.8605 19.8369 22.1626C19.5143 22.4735 19.1081 22.6846 18.668 22.769H18.667C18.2208 22.8554 17.7587 22.8114 17.3369 22.6421L17.334 22.6411L17.1816 22.5737C16.8831 22.4287 16.6197 22.2196 16.4111 21.9614L16.3115 21.8286C15.7208 20.9722 15.839 19.8136 16.5898 19.0933L16.5908 19.0923ZM14.709 7.73975C13.2964 6.3829 11.1357 6.17678 9.49121 7.24072V7.23975C8.80971 7.68029 8.27495 8.31424 7.95508 9.06006L7.9541 9.06201C7.86735 9.26536 7.79954 9.47508 7.74805 9.68799H6.25C5.7323 9.68799 5.31261 10.1078 5.3125 10.6255C5.31263 11.1431 5.73232 11.563 6.25 11.563H7.75C7.92882 12.3008 8.30997 12.9756 8.85547 13.5063L8.85742 13.5093C9.44225 14.0743 10.1798 14.4566 10.9785 14.6099C11.7788 14.7654 12.6073 14.6868 13.3643 14.3833L13.3652 14.3843C14.1197 14.0822 14.7686 13.5636 15.2305 12.895C15.5164 12.4809 15.7137 12.0286 15.8262 11.563H23.75C24.2677 11.563 24.6874 11.1431 24.6875 10.6255C24.6874 10.1078 24.2677 9.68799 23.75 9.68799H15.8232C15.6495 8.96588 15.277 8.28552 14.708 7.73975H14.709ZM10.5098 8.81494C11.4237 8.2237 12.6241 8.33832 13.4092 9.09229L13.4102 9.09326C14.1142 9.76879 14.2618 10.8298 13.79 11.6655L13.6875 11.8296C13.435 12.195 13.08 12.4781 12.668 12.6431L12.667 12.644C12.2447 12.8134 11.7817 12.8571 11.335 12.77L11.332 12.769L11.168 12.7319C10.7911 12.6307 10.4444 12.4347 10.1621 12.1626H10.1631C9.85261 11.8605 9.63976 11.4718 9.55273 11.0474C9.46691 10.628 9.51072 10.1911 9.67871 9.79736L9.67773 9.79639C9.85077 9.39409 10.141 9.0528 10.5088 8.81494H10.5098Z" fill="#D0C3DC"/>
</g>
<defs>
<clipPath id="clip0_116_280">
<rect width="30" height="30" rx="15" fill="white"/>
</clipPath>
</defs>
</svg>
