<svg width="50" height="107" viewBox="0 0 50 107" fill="none" xmlns="http://www.w3.org/2000/svg">
<g clip-path="url(#clip0_113_172)">
<path d="M29.4429 27.6726C30.4179 26.9416 31.7229 26.8241 32.813 27.3689C33.9032 27.914 34.5921 29.0289 34.5923 30.2478V75.3064C34.5921 76.5252 33.903 77.6391 32.813 78.1843C31.7227 78.7294 30.418 78.612 29.4429 77.8806L13.1372 65.6511H3.48096C1.70351 65.6511 0.262285 64.2098 0.262207 62.4324V43.1218C0.262434 41.3445 1.7036 39.9031 3.48096 39.9031H13.1362L29.4429 27.6726ZM16.1401 45.696C15.5832 46.1138 14.9056 46.3395 14.2095 46.3396H6.69971V59.2136H14.2095L14.4692 59.2244C15.0729 59.2733 15.6528 59.4917 16.1401 59.8572L28.1558 68.8689V36.6843L16.1401 45.696ZM39.2231 43.8279C40.0182 42.2383 41.9518 41.5936 43.5415 42.3884L42.2837 44.905C43.5338 42.4052 43.543 42.3898 43.5444 42.3904L43.5474 42.3914C43.5492 42.3923 43.5512 42.3933 43.5532 42.3943C43.5575 42.3964 43.5621 42.3996 43.5669 42.4021C43.5765 42.407 43.5874 42.4126 43.5991 42.4187C43.6228 42.431 43.6512 42.4454 43.6831 42.4626C43.7469 42.4972 43.8268 42.5423 43.9204 42.5974C44.1072 42.7075 44.3517 42.8609 44.6333 43.0603C45.193 43.4568 45.923 44.0518 46.6528 44.8728C48.1369 46.5424 49.6117 49.153 49.6118 52.7771C49.6118 56.4012 48.1369 59.0117 46.6528 60.6814C45.9231 61.5024 45.193 62.0974 44.6333 62.4939C44.3518 62.6933 44.1072 62.8467 43.9204 62.9568C43.8269 63.0119 43.7469 63.057 43.6831 63.0916C43.6514 63.1087 43.6227 63.1232 43.5991 63.1355C43.5875 63.1415 43.5765 63.1472 43.5669 63.1521C43.5622 63.1545 43.5574 63.1568 43.5532 63.1589C43.5512 63.16 43.5492 63.1618 43.5474 63.1628L43.5444 63.1638L42.1021 60.2869L43.5415 63.1658C41.9517 63.9606 40.0181 63.3161 39.2231 61.7263C38.4303 60.1402 39.0701 58.2121 40.6519 57.4138L40.6431 57.4177C40.6376 57.4205 40.6331 57.4236 40.6294 57.4255C40.6232 57.4288 40.619 57.4307 40.6177 57.4314C40.6204 57.4299 40.6328 57.4227 40.6528 57.4109C40.7008 57.3826 40.7926 57.326 40.9126 57.241C41.1573 57.0676 41.4999 56.7903 41.8423 56.405C42.5036 55.6609 43.1753 54.5164 43.1753 52.7771C43.1752 51.0378 42.5036 49.8932 41.8423 49.1492C41.4996 48.7637 41.1573 48.4856 40.9126 48.3123C40.7921 48.2269 40.7006 48.1705 40.6528 48.1423C40.6322 48.1302 40.6198 48.124 40.6177 48.1228C40.6188 48.1234 40.6228 48.1252 40.6294 48.1287C40.6331 48.1306 40.6376 48.1337 40.6431 48.1365C40.6454 48.1376 40.6483 48.1381 40.6509 48.1394C39.0699 47.3407 38.4303 45.4137 39.2231 43.8279Z" fill="url(#paint0_linear_113_172)"/>
</g>
<defs>
<linearGradient id="paint0_linear_113_172" x1="24.937" y1="27.0293" x2="24.937" y2="78.5241" gradientUnits="userSpaceOnUse">
<stop stop-color="#3D383E"/>
<stop offset="1" stop-color="#8260A2"/>
</linearGradient>
<clipPath id="clip0_113_172">
<rect width="49.3515" height="106.106" fill="white" transform="matrix(-1 0 0 1 49.3516 0)"/>
</clipPath>
</defs>
</svg>
