<svg width="181" height="389" viewBox="0 0 181 389" fill="none" xmlns="http://www.w3.org/2000/svg">
<path d="M90.7793 263.185C100.37 263.185 108.145 270.959 108.145 280.55C108.145 290.141 100.37 297.916 90.7793 297.916C81.1882 297.916 73.4136 290.141 73.4136 280.55C73.4136 270.959 81.1882 263.185 90.7793 263.185ZM90.7793 263.185L90.656 167.677M90.7793 280.55L90.656 280.673M21.3168 280.55C21.3168 318.914 52.4169 350.013 90.7793 350.013C129.142 350.013 160.242 318.914 160.242 280.55C160.242 262.934 153.684 246.849 142.876 234.604V89.5319C142.876 60.7597 119.552 37.4351 90.7793 37.4351C62.0062 37.4351 38.6824 60.7597 38.6824 89.5319V234.604C27.8741 246.849 21.3168 262.934 21.3168 280.55Z" stroke="url(#paint0_linear_61_376)" stroke-width="23.457" stroke-linecap="round" stroke-linejoin="round"/>
<defs>
<linearGradient id="paint0_linear_61_376" x1="90.7793" y1="350.013" x2="90.7793" y2="37.4351" gradientUnits="userSpaceOnUse">
<stop stop-color="#8260A2"/>
<stop offset="1" stop-color="#3D383E"/>
</linearGradient>
</defs>
</svg>
